# xmcd CD database file
#
# Track frame offsets:
#	150
#	15890
#	36008
#	55998
#	74691
#	95918
#	115946
#	132825
#	169467
#	191063
#	204924
#	224573
#	245383
#	262066
#
# Disc length: 3778 seconds
#
# Revision: 0
# Processed by: cddbd v1.5.2PL0 Copyright (c) Steve Scherf et al.
# Submitted via: CDex 1.51
#
DISCID=d60ec00e
DTITLE=Michael Schütz Quartett - To the point
DYEAR=1900
DGENRE=Jazz
TTITLE0=to the point
TTITLE1=Cuban
TTITLE2=First Step
TTITLE3=Adventure Game
TTITLE4=Tribute to Esbjörn Svensson
TTITLE5=What about seven
TTITLE6=Claps
TTITLE7=Rondo
TTITLE8=B-A-C-H
TTITLE9=Impressions
TTITLE10=Three of a kind
TTITLE11=Back and forth
TTITLE12=Waltz
TTITLE13=Reggae
EXTD=
EXTT0=
EXTT1=
EXTT2=
EXTT3=
EXTT4=
EXTT5=
EXTT6=
EXTT7=
EXTT8=
EXTT9=
EXTT10=
EXTT11=
EXTT12=
EXTT13=
PLAYORDER=
